Radley-Italic.ufo
<glyph name="percent" format="1">
  <advance width="1560"/>
  <unicode hex="0025"/>
  <outline>
    <contour>
      <point x="401" y="15" type="line" smooth="yes"/>
      <point x="370" y="-35"/>
      <point x="308" y="-137"/>
      <point x="229" y="-137" type="curve" smooth="yes"/>
      <point x="213" y="-137"/>
      <point x="196" y="-132"/>
      <point x="183" y="-122" type="curve"/>
      <point x="216" y="-78"/>
      <point x="252" y="-36"/>
      <point x="284" y="9" type="curve" smooth="yes"/>
      <point x="994" y="1014" type="line" smooth="yes"/>
      <point x="1059" y="1106"/>
      <point x="1152" y="1395"/>
      <point x="1276" y="1395" type="curve" smooth="yes"/>
      <point x="1304" y="1395"/>
      <point x="1338" y="1393"/>
      <point x="1363" y="1381" type="curve"/>
    </contour>
    <contour>
      <point x="345" y="588" type="curve" smooth="yes"/>
      <point x="187" y="588"/>
      <point x="112" y="708"/>
      <point x="112" y="854" type="curve" smooth="yes"/>
      <point x="112" y="1058"/>
      <point x="259" y="1327"/>
      <point x="489" y="1327" type="curve" smooth="yes"/>
      <point x="643" y="1327"/>
      <point x="707" y="1195"/>
      <point x="707" y="1058" type="curve" smooth="yes"/>
      <point x="707" y="860"/>
      <point x="572" y="588"/>
    </contour>
    <contour>
      <point x="1112" y="-6" type="curve" smooth="yes"/>
      <point x="958" y="-6"/>
      <point x="888" y="114"/>
      <point x="888" y="255" type="curve" smooth="yes"/>
      <point x="888" y="455"/>
      <point x="1029" y="717"/>
      <point x="1255" y="717" type="curve" smooth="yes"/>
      <point x="1410" y="717"/>
      <point x="1482" y="593"/>
      <point x="1482" y="451" type="curve" smooth="yes"/>
      <point x="1482" y="253"/>
      <point x="1334" y="-6"/>
    </contour>
    <contour>
      <point x="472" y="1264" type="curve" smooth="yes"/>
      <point x="294" y="1264"/>
      <point x="223" y="930"/>
      <point x="223" y="812" type="curve" smooth="yes"/>
      <point x="223" y="738"/>
      <point x="250" y="648"/>
      <point x="356" y="648" type="curve" smooth="yes"/>
      <point x="536" y="648"/>
      <point x="596" y="987"/>
      <point x="596" y="1109" type="curve" smooth="yes"/>
      <point x="596" y="1174"/>
      <point x="575" y="1264"/>
    </contour>
    <contour>
      <point x="1239" y="654" type="curve" smooth="yes"/>
      <point x="1064" y="654"/>
      <point x="997" y="329"/>
      <point x="997" y="212" type="curve" smooth="yes"/>
      <point x="997" y="140"/>
      <point x="1021" y="53"/>
      <point x="1125" y="53" type="curve" smooth="yes"/>
      <point x="1304" y="53"/>
      <point x="1367" y="381"/>
      <point x="1367" y="503" type="curve" smooth="yes"/>
      <point x="1367" y="571"/>
      <point x="1343" y="654"/>
    </contour>
  </outline>
</glyph>
<glyph name="parenright" format="1">
  <advance width="645"/>
  <unicode hex="0029"/>
  <outline>
    <contour>
      <point x="-62" y="-216" type="curve"/>
      <point x="-61" y="-216" type="line"/>
      <point x="221" y="83"/>
      <point x="351" y="435"/>
      <point x="351" y="808" type="curve" smooth="yes"/>
      <point x="351" y="968"/>
      <point x="325" y="1134"/>
      <point x="279" y="1297" type="curve"/>
      <point x="297" y="1308"/>
      <point x="314" y="1316"/>
      <point x="325" y="1316" type="curve" smooth="yes"/>
      <point x="328" y="1316"/>
      <point x="333" y="1315"/>
      <point x="335" y="1312" type="curve" smooth="yes"/>
      <point x="439" y="1188"/>
      <point x="524" y="950"/>
      <point x="524" y="685" type="curve" smooth="yes"/>
      <point x="524" y="352"/>
      <point x="388" y="-20"/>
      <point x="-21" y="-264" type="curve" smooth="yes"/>
      <point x="-22" y="-264"/>
      <point x="-23" y="-265"/>
      <point x="-24" y="-265" type="curve" smooth="yes"/>
      <point x="-30" y="-265"/>
      <point x="-51" y="-238"/>
    </contour>
  </outline>
</glyph>
<glyph name="equal" format="1">
  <advance width="849"/>
  <unicode hex="003D"/>
  <outline>
    <contour>
      <point x="562" y="470" type="line" smooth="yes"/>
      <point x="619" y="470"/>
      <point x="669" y="464"/>
      <point x="669" y="446" type="curve" smooth="yes"/>
      <point x="669" y="420"/>
      <point x="635" y="410"/>
      <point x="591" y="410" type="curve" smooth="yes"/>
      <point x="572" y="410"/>
      <point x="554" y="412"/>
      <point x="540" y="412" type="curve" smooth="yes"/>
      <point x="228" y="412" type="line" smooth="yes"/>
      <point x="216" y="412"/>
      <point x="199" y="411"/>
      <point x="183" y="411" type="curve" smooth="yes"/>
      <point x="140" y="411"/>
      <point x="120" y="419"/>
      <point x="120" y="432" type="curve" smooth="yes"/>
      <point x="120" y="472"/>
      <point x="200" y="470"/>
      <point x="246" y="470" type="curve" smooth="yes"/>
    </contour>
    <contour>
      <point x="611" y="712" type="line" smooth="yes"/>
      <point x="668" y="712"/>
      <point x="718" y="706"/>
      <point x="718" y="688" type="curve" smooth="yes"/>
      <point x="718" y="662"/>
      <point x="685" y="652"/>
      <point x="641" y="652" type="curve" smooth="yes"/>
      <point x="623" y="652"/>
      <point x="605" y="654"/>
      <point x="591" y="654" type="curve" smooth="yes"/>
      <point x="279" y="654" type="line" smooth="yes"/>
      <point x="267" y="654"/>
      <point x="250" y="653"/>
      <point x="234" y="653" type="curve" smooth="yes"/>
      <point x="190" y="653"/>
      <point x="169" y="661"/>
      <point x="169" y="674" type="curve" smooth="yes"/>
      <point x="169" y="714"/>
      <point x="249" y="712"/>
      <point x="295" y="712" type="curve" smooth="yes"/>
    </contour>
  </outline>
</glyph>
<glyph name="greater" format="1">
  <advance width="669"/>
  <unicode hex="003E"/>
  <outline>
    <contour>
      <point x="460" y="551" type="curve"/>
      <point x="383" y="692"/>
      <point x="206" y="854"/>
      <point x="206" y="1010" type="curve" smooth="yes"/>
      <point x="206" y="1035"/>
      <point x="244" y="1051"/>
      <point x="269" y="1051" type="curve" smooth="yes"/>
      <point x="380" y="1051"/>
      <point x="640" y="656"/>
      <point x="550" y="556" type="curve" smooth="yes"/>
      <point x="116" y="71" type="line" smooth="yes"/>
      <point x="91" y="43"/>
      <point x="74" y="35"/>
      <point x="42" y="35" type="curve"/>
      <point x="41" y="36" type="line"/>
      <point x="27" y="36"/>
      <point x="22" y="42"/>
      <point x="22" y="56" type="curve" smooth="yes"/>
      <point x="22" y="124"/>
      <point x="391" y="482"/>
    </contour>
  </outline>
</glyph>
<glyph name="at" format="1">
  <advance width="1709"/>
  <unicode hex="0040"/>
  <outline>
    <contour>
      <point x="1125" y="1295" type="curve" smooth="yes"/>
      <point x="631" y="1295"/>
      <point x="144" y="908"/>
      <point x="45" y="420" type="curve" smooth="yes"/>
      <point x="-33" y="29"/>
      <point x="267" y="-157"/>
      <point x="619" y="-157" type="curve" smooth="yes"/>
      <point x="762" y="-157"/>
      <point x="913" y="-126"/>
      <point x="1051" y="-66" type="curve"/>
      <point x="1073" y="7" type="line"/>
      <point x="936" y="-29"/>
      <point x="810" y="-48"/>
      <point x="699" y="-48" type="curve" smooth="yes"/>
      <point x="369" y="-48"/>
      <point x="175" y="112"/>
      <point x="240" y="432" type="curve" smooth="yes"/>
      <point x="335" y="902"/>
      <point x="772" y="1188"/>
      <point x="1101" y="1188" type="curve" smooth="yes"/>
      <point x="1353" y="1188"/>
      <point x="1542" y="1020"/>
      <point x="1465" y="640" type="curve" smooth="yes"/>
      <point x="1444" y="537"/>
      <point x="1327" y="188"/>
      <point x="1185" y="188" type="curve" smooth="yes"/>
      <point x="1123" y="188"/>
      <point x="1134" y="253"/>
      <point x="1141" y="289" type="curve" smooth="yes"/>
      <point x="1167" y="420"/>
      <point x="1224" y="547"/>
      <point x="1251" y="678" type="curve" smooth="yes"/>
      <point x="1289" y="869"/>
      <point x="1265" y="1024"/>
      <point x="1045" y="1024" type="curve" smooth="yes"/>
      <point x="756" y="1024"/>
      <point x="503" y="748"/>
      <point x="448" y="477" type="curve" smooth="yes"/>
      <point x="412" y="299"/>
      <point x="476" y="150"/>
      <point x="668" y="150" type="curve" smooth="yes"/>
      <point x="779" y="150"/>
      <point x="897" y="203"/>
      <point x="983" y="289" type="curve"/>
      <point x="985" y="191"/>
      <point x="1029" y="98"/>
      <point x="1139" y="98" type="curve" smooth="yes"/>
      <point x="1390" y="98"/>
      <point x="1603" y="442"/>
      <point x="1646" y="657" type="curve" smooth="yes"/>
      <point x="1730" y="1073"/>
      <point x="1482" y="1295"/>
    </contour>
    <contour>
      <point x="1098" y="706" type="curve" smooth="yes"/>
      <point x="1074" y="588"/>
      <point x="1030" y="472"/>
      <point x="993" y="355" type="curve"/>
      <point x="917" y="299"/>
      <point x="816" y="248"/>
      <point x="728" y="248" type="curve" smooth="yes"/>
      <point x="609" y="248"/>
      <point x="580" y="349"/>
      <point x="605" y="475" type="curve" smooth="yes"/>
      <point x="647" y="678"/>
      <point x="831" y="945"/>
      <point x="1009" y="945" type="curve" smooth="yes"/>
      <point x="1135" y="945"/>
      <point x="1114" y="784"/>
    </contour>
  </outline>
</glyph>
<glyph name="C" format="1">
  <advance width="1210"/>
  <unicode hex="0043"/>
  <outline>
    <contour>
      <point x="610" y="0" type="move" name="bot"/>
    </contour>
    <contour>
      <point x="800" y="1264" type="move" name="top"/>
    </contour>
    <contour>
      <point x="677" y="1264" type="move" name="top"/>
    </contour>
    <contour>
      <point x="677" y="0" type="move" name="bot"/>
    </contour>
    <contour>
      <point x="610" y="-34" type="curve" smooth="yes"/>
      <point x="283" y="-34"/>
      <point x="101" y="279"/>
      <point x="101" y="574" type="curve" smooth="yes"/>
      <point x="101" y="938"/>
      <point x="392" y="1301"/>
      <point x="772" y="1301" type="curve" smooth="yes"/>
      <point x="974" y="1301"/>
      <point x="1254" y="1205"/>
      <point x="1254" y="961" type="curve" smooth="yes"/>
      <point x="1254" y="916"/>
      <point x="1224" y="877"/>
      <point x="1177" y="877" type="curve" smooth="yes"/>
      <point x="1019" y="877"/>
      <point x="1147" y="1199"/>
      <point x="798" y="1199" type="curve" smooth="yes"/>
      <point x="471" y="1199"/>
      <point x="299" y="791"/>
      <point x="299" y="514" type="curve" smooth="yes"/>
      <point x="299" y="296"/>
      <point x="387" y="84"/>
      <point x="638" y="84" type="curve" smooth="yes"/>
      <point x="825" y="84"/>
      <point x="1008" y="215"/>
      <point x="1098" y="372" type="curve"/>
      <point x="1183" y="304" type="line"/>
      <point x="1065" y="106"/>
      <point x="845" y="-34"/>
    </contour>
  </outline>
</glyph>
<glyph name="Q" format="1">
  <advance width="1249"/>
  <unicode hex="0051"/>
  <outline>
    <contour>
      <point x="663" y="1264" type="move" name="top"/>
    </contour>
    <contour>
      <point x="229" y="-193" type="curve" smooth="yes"/>
      <point x="282" y="-132"/>
      <point x="407" y="-41"/>
      <point x="451" y="2" type="curve"/>
      <point x="229" y="112"/>
      <point x="101" y="331"/>
      <point x="101" y="577" type="curve" smooth="yes"/>
      <point x="101" y="898"/>
      <point x="358" y="1301"/>
      <point x="709" y="1301" type="curve" smooth="yes"/>
      <point x="1025" y="1301"/>
      <point x="1226" y="1022"/>
      <point x="1226" y="724" type="curve" smooth="yes"/>
      <point x="1226" y="420"/>
      <point x="973" y="-35"/>
      <point x="630" y="-35" type="curve" smooth="yes"/>
      <point x="619" y="-35"/>
      <point x="609" y="-33"/>
      <point x="598" y="-31" type="curve"/>
      <point x="468" y="-116" type="line"/>
      <point x="621" y="-160"/>
      <point x="831" y="-203"/>
      <point x="995" y="-212" type="curve"/>
      <point x="1007" y="-229"/>
      <point x="1012" y="-259"/>
      <point x="1012" y="-304" type="curve" smooth="yes"/>
      <point x="1012" y="-326"/>
      <point x="996" y="-346"/>
      <point x="963" y="-346" type="curve" smooth="yes"/>
      <point x="767" y="-346"/>
      <point x="498" y="-198"/>
      <point x="380" y="-198" type="curve" smooth="yes"/>
      <point x="340" y="-198"/>
      <point x="311" y="-257"/>
      <point x="284" y="-257" type="curve" smooth="yes"/>
      <point x="247" y="-257"/>
      <point x="223" y="-229"/>
      <point x="223" y="-208" type="curve" smooth="yes"/>
      <point x="223" y="-202"/>
      <point x="225" y="-197"/>
    </contour>
    <contour>
      <point x="1023" y="787" type="curve" smooth="yes"/>
      <point x="1023" y="980"/>
      <point x="942" y="1199"/>
      <point x="716" y="1199" type="curve" smooth="yes"/>
      <point x="430" y="1199"/>
      <point x="300" y="744"/>
      <point x="300" y="516" type="curve" smooth="yes"/>
      <point x="300" y="354"/>
      <point x="380" y="83"/>
      <point x="581" y="83" type="curve" smooth="yes"/>
      <point x="884" y="83"/>
      <point x="1023" y="543"/>
    </contour>
  </outline>
</glyph>
<glyph name="S" format="1">
  <advance width="1038"/>
  <unicode hex="0053"/>
  <outline>
    <contour>
      <point x="548" y="1264" type="move" name="top"/>
    </contour>
    <contour>
      <point x="548" y="0" type="move" name="bot"/>
    </contour>
    <contour>
      <point x="533" y="69" type="curve" smooth="yes"/>
      <point x="680" y="69"/>
      <point x="767" y="138"/>
      <point x="767" y="290" type="curve" smooth="yes"/>
      <point x="767" y="555"/>
      <point x="255" y="693"/>
      <point x="255" y="1005" type="curve" smooth="yes"/>
      <point x="255" y="1216"/>
      <point x="456" y="1301"/>
      <point x="639" y="1301" type="curve" smooth="yes"/>
      <point x="816" y="1301"/>
      <point x="1054" y="1215"/>
      <point x="1054" y="1003" type="curve" smooth="yes"/>
      <point x="1054" y="959"/>
      <point x="1022" y="920"/>
      <point x="976" y="920" type="curve" smooth="yes"/>
      <point x="825" y="920"/>
      <point x="947" y="1199"/>
      <point x="618" y="1199" type="curve" smooth="yes"/>
      <point x="505" y="1199"/>
      <point x="425" y="1129"/>
      <point x="425" y="1013" type="curve" smooth="yes"/>
      <point x="425" y="754"/>
      <point x="936" y="622"/>
      <point x="936" y="299" type="curve" smooth="yes"/>
      <point x="936" y="69"/>
      <point x="740" y="-32"/>
      <point x="534" y="-32" type="curve" smooth="yes"/>
      <point x="307" y="-32"/>
      <point x="42" y="97"/>
      <point x="42" y="355" type="curve" smooth="yes"/>
      <point x="42" y="399"/>
      <point x="74" y="438"/>
      <point x="120" y="438" type="curve" smooth="yes"/>
      <point x="282" y="438"/>
      <point x="156" y="69"/>
    </contour>
  </outline>
</glyph>
<glyph name="V" format="1">
  <advance width="1186"/>
  <unicode hex="0056"/>
  <outline>
    <contour>
      <point x="704" y="1264" type="move" name="top"/>
    </contour>
    <contour>
      <point x="1347" y="1264" type="line"/>
      <point x="1345" y="1261" type="line"/>
      <point x="1349" y="1252"/>
      <point x="1350" y="1241"/>
      <point x="1350" y="1231" type="curve" smooth="yes"/>
      <point x="1350" y="1217"/>
      <point x="1347" y="1198"/>
      <point x="1336" y="1187" type="curve"/>
      <point x="1229" y="1187"/>
      <point x="1161" y="1139"/>
      <point x="1103" y="1050" type="curve" smooth="yes"/>
      <point x="414" y="-8" type="line"/>
      <point x="253" y="-8" type="line"/>
      <point x="262" y="1062" type="line" smooth="yes"/>
      <point x="263" y="1228"/>
      <point x="58" y="1159"/>
      <point x="58" y="1209" type="curve" smooth="yes"/>
      <point x="58" y="1228"/>
      <point x="64" y="1247"/>
      <point x="72" y="1264" type="curve"/>
      <point x="600" y="1264" type="line"/>
      <point x="603" y="1254"/>
      <point x="605" y="1243"/>
      <point x="605" y="1233" type="curve" smooth="yes"/>
      <point x="605" y="1220"/>
      <point x="603" y="1200"/>
      <point x="593" y="1190" type="curve"/>
      <point x="487" y="1190"/>
      <point x="421" y="1163"/>
      <point x="420" y="1043" type="curve" smooth="yes"/>
      <point x="411" y="202" type="line"/>
      <point x="479" y="308"/>
      <point x="986" y="1042"/>
      <point x="986" y="1121" type="curve" smooth="yes"/>
      <point x="986" y="1219"/>
      <point x="853" y="1161"/>
      <point x="853" y="1209" type="curve" smooth="yes"/>
      <point x="853" y="1228"/>
      <point x="859" y="1247"/>
      <point x="866" y="1264" type="curve"/>
    </contour>
  </outline>
</glyph>
<glyph name="c" format="1">
  <advance width="904"/>
  <unicode hex="0063"/>
  <outline>
    <contour>
      <point x="458" y="0" type="move" name="bot"/>
    </contour>
    <contour>
      <point x="519" y="872" type="move" name="top"/>
    </contour>
    <contour>
      <point x="514" y="822" type="curve" smooth="yes"/>
      <point x="352" y="822"/>
      <point x="240" y="585"/>
      <point x="240" y="388" type="curve" smooth="yes"/>
      <point x="240" y="239"/>
      <point x="312" y="99"/>
      <point x="471" y="99" type="curve" smooth="yes"/>
      <point x="621" y="99"/>
      <point x="712" y="205"/>
      <point x="791" y="306" type="curve"/>
      <point x="866" y="247" type="line"/>
      <point x="767" y="107"/>
      <point x="622" y="-19"/>
      <point x="456" y="-19" type="curve" smooth="yes"/>
      <point x="248" y="-19"/>
      <point x="71" y="150"/>
      <point x="71" y="389" type="curve" smooth="yes"/>
      <point x="71" y="658"/>
      <point x="278" y="891"/>
      <point x="527" y="891" type="curve" smooth="yes"/>
      <point x="627" y="891"/>
      <point x="847" y="821"/>
      <point x="847" y="688" type="curve" smooth="yes"/>
      <point x="847" y="644"/>
      <point x="825" y="623"/>
      <point x="775" y="623" type="curve" smooth="yes"/>
      <point x="687" y="623"/>
      <point x="638" y="822"/>
    </contour>
  </outline>
</glyph>
<glyph name="j" format="1">
  <advance width="597"/>
  <unicode hex="006A"/>
  <outline>
    <contour>
      <point x="402" y="1222" type="curve" smooth="yes"/>
      <point x="402" y="1283"/>
      <point x="445" y="1313"/>
      <point x="494" y="1313" type="curve" smooth="yes"/>
      <point x="550" y="1313"/>
      <point x="615" y="1270"/>
      <point x="615" y="1184" type="curve" smooth="yes"/>
      <point x="615" y="1118"/>
      <point x="575" y="1092"/>
      <point x="529" y="1092" type="curve" smooth="yes"/>
      <point x="471" y="1092"/>
      <point x="402" y="1139"/>
    </contour>
    <contour>
      <point x="353" y="891" type="curve"/>
      <point x="469" y="892"/>
      <point x="512" y="829"/>
      <point x="512" y="730" type="curve" smooth="yes"/>
      <point x="512" y="687"/>
      <point x="504" y="636"/>
      <point x="489" y="578" type="curve" smooth="yes"/>
      <point x="408" y="259" type="line" smooth="yes"/>
      <point x="339" y="-11"/>
      <point x="277" y="-338"/>
      <point x="-20" y="-338" type="curve" smooth="yes"/>
      <point x="-101" y="-338"/>
      <point x="-233" y="-303"/>
      <point x="-233" y="-207" type="curve" smooth="yes"/>
      <point x="-233" y="-168"/>
      <point x="-209" y="-147"/>
      <point x="-170" y="-147" type="curve" smooth="yes"/>
      <point x="-83" y="-147"/>
      <point x="-41" y="-246"/>
      <point x="52" y="-246" type="curve" smooth="yes"/>
      <point x="148" y="-246"/>
      <point x="165" y="-107"/>
      <point x="180" y="-32" type="curve" smooth="yes"/>
      <point x="204" y="94"/>
      <point x="237" y="220"/>
      <point x="268" y="345" type="curve" smooth="yes"/>
      <point x="335" y="613" type="line" smooth="yes"/>
      <point x="343" y="644"/>
      <point x="352" y="682"/>
      <point x="352" y="715" type="curve" smooth="yes"/>
      <point x="352" y="752"/>
      <point x="339" y="788"/>
      <point x="300" y="788" type="curve" smooth="yes"/>
      <point x="265" y="788"/>
      <point x="225" y="756"/>
      <point x="187" y="695" type="curve" smooth="yes"/>
      <point x="132" y="606" type="line"/>
      <point x="83" y="644" type="line"/>
      <point x="177" y="781"/>
      <point x="246" y="891"/>
    </contour>
  </outline>
</glyph>
<glyph name="s" format="1">
  <advance width="735"/>
  <unicode hex="0073"/>
  <outline>
    <contour>
      <point x="414" y="871" type="move" name="top"/>
    </contour>
    <contour>
      <point x="360" y="0" type="move" name="bot"/>
    </contour>
    <contour>
      <point x="642" y="190" type="curve" smooth="yes"/>
      <point x="642" y="35"/>
      <point x="508" y="-19"/>
      <point x="373" y="-19" type="curve" smooth="yes"/>
      <point x="237" y="-19"/>
      <point x="17" y="46"/>
      <point x="17" y="191" type="curve" smooth="yes"/>
      <point x="17" y="238"/>
      <point x="42" y="266"/>
      <point x="106" y="266" type="curve" smooth="yes"/>
      <point x="116" y="266"/>
      <point x="182" y="78"/>
      <point x="422" y="69" type="curve"/>
      <point x="471" y="69"/>
      <point x="505" y="96"/>
      <point x="505" y="179" type="curve" smooth="yes"/>
      <point x="505" y="404"/>
      <point x="128" y="429"/>
      <point x="128" y="694" type="curve" smooth="yes"/>
      <point x="128" y="840"/>
      <point x="279" y="891"/>
      <point x="402" y="891" type="curve" smooth="yes"/>
      <point x="530" y="891"/>
      <point x="704" y="816"/>
      <point x="704" y="665" type="curve" smooth="yes"/>
      <point x="704" y="639"/>
      <point x="682" y="617"/>
      <point x="652" y="617" type="curve" smooth="yes"/>
      <point x="567" y="617"/>
      <point x="514" y="811"/>
      <point x="333" y="811" type="curve" smooth="yes"/>
      <point x="287" y="811"/>
      <point x="254" y="783"/>
      <point x="254" y="705" type="curve" smooth="yes"/>
      <point x="254" y="533"/>
      <point x="642" y="486"/>
    </contour>
  </outline>
</glyph>
<glyph name="z" format="1">
  <advance width="865"/>
  <unicode hex="007A"/>
  <outline>
    <contour>
      <point x="487" y="871" type="move" name="top"/>
    </contour>
    <contour>
      <point x="753" y="118" type="curve"/>
      <point x="753" y="149"/>
      <point x="656" y="159"/>
      <point x="656" y="236" type="curve" smooth="yes"/>
      <point x="656" y="272"/>
      <point x="689" y="297"/>
      <point x="732" y="297" type="curve" smooth="yes"/>
      <point x="782" y="297"/>
      <point x="839" y="262"/>
      <point x="839" y="164" type="curve" smooth="yes"/>
      <point x="839" y="32"/>
      <point x="707" y="-19"/>
      <point x="582" y="-19" type="curve" smooth="yes"/>
      <point x="397" y="-19"/>
      <point x="292" y="101"/>
      <point x="218" y="101" type="curve" smooth="yes"/>
      <point x="138" y="101"/>
      <point x="122" y="10"/>
      <point x="119" y="-20" type="curve"/>
      <point x="73" y="-20" type="line"/>
      <point x="56" y="3"/>
      <point x="56" y="30"/>
      <point x="56" y="55" type="curve" smooth="yes"/>
      <point x="56" y="231"/>
      <point x="247" y="381"/>
      <point x="377" y="462" type="curve" smooth="yes"/>
      <point x="456" y="513"/>
      <point x="558" y="600"/>
      <point x="645" y="681" type="curve" smooth="yes"/>
      <point x="645" y="681"/>
      <point x="613" y="659"/>
      <point x="545" y="659" type="curve" smooth="yes"/>
      <point x="451" y="659"/>
      <point x="361" y="795"/>
      <point x="282" y="795" type="curve" smooth="yes"/>
      <point x="256" y="795"/>
      <point x="225" y="790"/>
      <point x="225" y="763" type="curve" smooth="yes"/>
      <point x="225" y="724"/>
      <point x="280" y="695"/>
      <point x="280" y="651" type="curve" smooth="yes"/>
      <point x="280" y="618"/>
      <point x="252" y="597"/>
      <point x="215" y="597" type="curve" smooth="yes"/>
      <point x="154" y="597"/>
      <point x="106" y="654"/>
      <point x="106" y="724" type="curve" smooth="yes"/>
      <point x="106" y="829"/>
      <point x="225" y="891"/>
      <point x="330" y="891" type="curve" smooth="yes"/>
      <point x="428" y="891"/>
      <point x="570" y="764"/>
      <point x="650" y="764" type="curve" smooth="yes"/>
      <point x="723" y="764"/>
      <point x="737" y="891"/>
      <point x="762" y="891" type="curve" smooth="yes"/>
      <point x="772" y="891"/>
      <point x="784" y="893"/>
      <point x="793" y="893" type="curve" smooth="yes"/>
      <point x="807" y="893"/>
      <point x="818" y="889"/>
      <point x="818" y="873" type="curve" smooth="yes"/>
      <point x="818" y="823"/>
      <point x="797" y="777"/>
      <point x="775" y="735" type="curve" smooth="yes"/>
      <point x="694" y="584"/>
      <point x="556" y="483"/>
      <point x="426" y="393" type="curve"/>
      <point x="347" y="330"/>
      <point x="266" y="258"/>
      <point x="197" y="166" type="curve"/>
      <point x="247" y="179"/>
      <point x="302" y="199"/>
      <point x="357" y="199" type="curve" smooth="yes"/>
      <point x="483" y="199"/>
      <point x="561" y="81"/>
      <point x="675" y="81" type="curve" smooth="yes"/>
      <point x="737" y="81"/>
      <point x="755" y="91"/>
    </contour>
  </outline>
</glyph>
<glyph name="braceright" format="1">
  <advance width="659"/>
  <unicode hex="007D"/>
  <outline>
    <contour>
      <point x="332" y="893" type="curve" smooth="yes"/>
      <point x="332" y="1047"/>
      <point x="451" y="1158"/>
      <point x="451" y="1304" type="curve" smooth="yes"/>
      <point x="451" y="1401"/>
      <point x="376" y="1441"/>
      <point x="290" y="1456" type="curve"/>
      <point x="291" y="1462"/>
      <point x="289" y="1480"/>
      <point x="298" y="1480" type="curve" smooth="yes"/>
      <point x="462" y="1480"/>
      <point x="557" y="1387"/>
      <point x="557" y="1241" type="curve" smooth="yes"/>
      <point x="557" y="1114"/>
      <point x="454" y="962"/>
      <point x="454" y="816" type="curve" smooth="yes"/>
      <point x="454" y="721"/>
      <point x="519" y="668"/>
      <point x="613" y="651" type="curve" smooth="yes"/>
      <point x="620" y="650"/>
      <point x="625" y="635"/>
      <point x="618" y="630" type="curve" smooth="yes"/>
      <point x="514" y="565"/>
      <point x="398" y="589"/>
      <point x="358" y="403" type="curve" smooth="yes"/>
      <point x="338" y="308"/>
      <point x="346" y="219"/>
      <point x="328" y="131" type="curve" smooth="yes"/>
      <point x="283" y="-82"/>
      <point x="145" y="-197"/>
      <point x="-66" y="-215" type="curve"/>
      <point x="-65" y="-208"/>
      <point x="-64" y="-192"/>
      <point x="-58" y="-191" type="curve" smooth="yes"/>
      <point x="43" y="-169"/>
      <point x="153" y="-127"/>
      <point x="179" y="-6" type="curve" smooth="yes"/>
      <point x="192" y="57"/>
      <point x="190" y="117"/>
      <point x="190" y="179" type="curve" smooth="yes"/>
      <point x="190" y="411"/>
      <point x="323" y="561"/>
      <point x="529" y="617" type="curve" smooth="yes"/>
      <point x="584" y="632" type="line"/>
      <point x="529" y="649" type="line" smooth="yes"/>
      <point x="406" y="687"/>
      <point x="332" y="770"/>
    </contour>
  </outline>
</glyph>
<glyph name="exclamdown" format="1">
  <advance width="565"/>
  <unicode hex="00A1"/>
  <outline>
    <contour>
      <point x="259" y="1087" type="curve" smooth="yes"/>
      <point x="259" y="1173"/>
      <point x="351" y="1236"/>
      <point x="432" y="1236" type="curve" smooth="yes"/>
      <point x="486" y="1236"/>
      <point x="529" y="1209"/>
      <point x="529" y="1136" type="curve" smooth="yes"/>
      <point x="529" y="1046"/>
      <point x="438" y="984"/>
      <point x="360" y="984" type="curve" smooth="yes"/>
      <point x="304" y="984"/>
      <point x="259" y="1013"/>
    </contour>
    <contour>
      <point x="320" y="803" type="line"/>
      <point x="348" y="803" type="line"/>
      <point x="269" y="154" type="line"/>
      <point x="261" y="102"/>
      <point x="210" y="0"/>
      <point x="116" y="0" type="curve" smooth="yes"/>
      <point x="54" y="0"/>
      <point x="39" y="34"/>
      <point x="39" y="77" type="curve" smooth="yes"/>
      <point x="39" y="101"/>
      <point x="43" y="126"/>
      <point x="51" y="146" type="curve" smooth="yes"/>
    </contour>
  </outline>
</glyph>
<glyph name="section" format="1">
  <advance width="856"/>
  <unicode hex="00A7"/>
  <outline>
    <contour>
      <point x="455" y="1043" type="curve"/>
      <point x="582" y="846"/>
      <point x="770" y="523"/>
      <point x="713" y="255" type="curve" smooth="yes"/>
      <point x="702" y="204"/>
      <point x="681" y="153"/>
      <point x="648" y="107" type="curve"/>
      <point x="647" y="110" type="line"/>
      <point x="595" y="390"/>
      <point x="296" y="517"/>
      <point x="372" y="872" type="curve" smooth="yes"/>
      <point x="384" y="928"/>
      <point x="414" y="997"/>
    </contour>
    <contour>
      <point x="423" y="1073" type="curve"/>
      <point x="352" y="975"/>
      <point x="296" y="867"/>
      <point x="272" y="757" type="curve" smooth="yes"/>
      <point x="185" y="344"/>
      <point x="648" y="203"/>
      <point x="598" y="-30" type="curve" smooth="yes"/>
      <point x="579" y="-121"/>
      <point x="471" y="-149"/>
      <point x="397" y="-149" type="curve" smooth="yes"/>
      <point x="180" y="-149"/>
      <point x="278" y="31"/>
      <point x="181" y="31" type="curve" smooth="yes"/>
      <point x="141" y="31"/>
      <point x="106" y="8"/>
      <point x="97" y="-34" type="curve" smooth="yes"/>
      <point x="65" y="-187"/>
      <point x="268" y="-222"/>
      <point x="384" y="-222" type="curve" smooth="yes"/>
      <point x="500" y="-222"/>
      <point x="650" y="-152"/>
      <point x="678" y="-21" type="curve" smooth="yes"/>
      <point x="685" y="13"/>
      <point x="682" y="46"/>
      <point x="674" y="76" type="curve"/>
      <point x="746" y="169"/>
      <point x="802" y="274"/>
      <point x="824" y="381" type="curve" smooth="yes"/>
      <point x="920" y="830"/>
      <point x="472" y="997"/>
      <point x="511" y="1179" type="curve" smooth="yes"/>
      <point x="529" y="1262"/>
      <point x="616" y="1296"/>
      <point x="688" y="1296" type="curve" smooth="yes"/>
      <point x="804" y="1296"/>
      <point x="835" y="1134"/>
      <point x="903" y="1134" type="curve" smooth="yes"/>
      <point x="928" y="1134"/>
      <point x="971" y="1150"/>
      <point x="978" y="1181" type="curve" smooth="yes"/>
      <point x="1009" y="1331"/>
      <point x="818" y="1360"/>
      <point x="706" y="1360" type="curve" smooth="yes"/>
      <point x="582" y="1360"/>
      <point x="454" y="1285"/>
      <point x="425" y="1152" type="curve" smooth="yes"/>
      <point x="420" y="1125"/>
      <point x="418" y="1098"/>
    </contour>
  </outline>
</glyph>
<glyph name="ordfeminine" format="1">
  <advance width="708"/>
  <unicode hex="00AA"/>
  <outline>
    <contour>
      <point x="585" y="688" type="line"/>
      <point x="538" y="654"/>
      <point x="474" y="619"/>
      <point x="420" y="619" type="curve" smooth="yes"/>
      <point x="374" y="619"/>
      <point x="341" y="643"/>
      <point x="352" y="693" type="curve" smooth="yes"/>
      <point x="375" y="804"/>
      <point x="531" y="827"/>
      <point x="620" y="855" type="curve"/>
    </contour>
    <contour>
      <point x="628" y="893" type="line"/>
      <point x="502" y="853"/>
      <point x="248" y="839"/>
      <point x="213" y="673" type="curve" smooth="yes"/>
      <point x="194" y="587"/>
      <point x="266" y="546"/>
      <point x="343" y="546" type="curve" smooth="yes"/>
      <point x="426" y="546"/>
      <point x="505" y="592"/>
      <point x="577" y="644" type="curve"/>
      <point x="570" y="592"/>
      <point x="592" y="546"/>
      <point x="648" y="546" type="curve" smooth="yes"/>
      <point x="694" y="546"/>
      <point x="756" y="560"/>
      <point x="789" y="602" type="curve"/>
      <point x="784" y="651" type="line"/>
      <point x="761" y="640"/>
      <point x="743" y="634"/>
      <point x="731" y="634" type="curve" smooth="yes"/>
      <point x="694" y="634"/>
      <point x="706" y="687"/>
      <point x="725" y="780" type="curve" smooth="yes"/>
      <point x="738" y="842"/>
      <point x="758" y="907"/>
      <point x="763" y="928" type="curve" smooth="yes"/>
      <point x="798" y="1095"/>
      <point x="765" y="1164"/>
      <point x="592" y="1164" type="curve" smooth="yes"/>
      <point x="505" y="1164"/>
      <point x="331" y="1129"/>
      <point x="307" y="1016" type="curve" smooth="yes"/>
      <point x="302" y="990"/>
      <point x="316" y="935"/>
      <point x="347" y="935" type="curve" smooth="yes"/>
      <point x="373" y="935"/>
      <point x="434" y="966"/>
      <point x="440" y="995" type="curve" smooth="yes"/>
      <point x="445" y="1017"/>
      <point x="424" y="1035"/>
      <point x="429" y="1058" type="curve" smooth="yes"/>
      <point x="438" y="1098"/>
      <point x="521" y="1117"/>
      <point x="551" y="1117" type="curve" smooth="yes"/>
      <point x="656" y="1117"/>
      <point x="661" y="1047"/>
      <point x="642" y="959" type="curve" smooth="yes"/>
    </contour>
  </outline>
</glyph>
<glyph name="logicalnot" format="1">
  <advance width="1296"/>
  <unicode hex="00AC"/>
  <outline>
    <contour>
      <point x="148" y="876" type="curve" smooth="yes"/>
      <point x="313" y="875" type="line" smooth="yes"/>
      <point x="362" y="875"/>
      <point x="411" y="874"/>
      <point x="460" y="874" type="curve" smooth="yes"/>
      <point x="656" y="874"/>
      <point x="852" y="877"/>
      <point x="1047" y="877" type="curve" smooth="yes"/>
      <point x="1085" y="877"/>
      <point x="1126" y="874"/>
      <point x="1160" y="870" type="curve"/>
      <point x="1154" y="789"/>
      <point x="1138" y="706"/>
      <point x="1121" y="623" type="curve" smooth="yes"/>
      <point x="1076" y="406" type="line" smooth="yes"/>
      <point x="1068" y="368"/>
      <point x="1064" y="303"/>
      <point x="1029" y="303" type="curve" smooth="yes"/>
      <point x="995" y="303"/>
      <point x="971" y="318"/>
      <point x="937" y="327" type="curve"/>
      <point x="1028" y="759" type="line"/>
      <point x="194" y="759" type="line" smooth="yes"/>
      <point x="156" y="759"/>
      <point x="98" y="752"/>
      <point x="98" y="778" type="curve" smooth="yes"/>
      <point x="98" y="816"/>
      <point x="109" y="876"/>
    </contour>
  </outline>
</glyph>
<glyph name="uni00AD" format="1">
  <advance width="824"/>
  <unicode hex="00AD"/>
  <outline>
    <contour>
      <point x="575" y="408" type="curve" smooth="yes"/>
      <point x="145" y="407" type="line"/>
      <point x="136" y="413"/>
      <point x="136" y="414"/>
      <point x="136" y="423" type="curve" smooth="yes"/>
      <point x="136" y="437"/>
      <point x="137" y="495"/>
      <point x="154" y="508" type="curve" smooth="yes"/>
      <point x="171" y="522"/>
      <point x="206" y="512"/>
      <point x="240" y="512" type="curve" smooth="yes"/>
      <point x="605" y="512" type="line" smooth="yes"/>
      <point x="636" y="512"/>
      <point x="663" y="511"/>
      <point x="685" y="509" type="curve"/>
      <point x="681" y="477"/>
      <point x="681" y="423"/>
      <point x="663" y="410" type="curve" smooth="yes"/>
      <point x="645" y="397"/>
      <point x="610" y="408"/>
    </contour>
  </outline>
</glyph>
<glyph name="registered" format="1">
  <advance width="1551"/>
  <unicode hex="00AE"/>
  <outline>
    <contour>
      <point x="1456" y="781" type="curve" smooth="yes"/>
      <point x="1456" y="311"/>
      <point x="1031" y="-18"/>
      <point x="633" y="-18" type="curve" smooth="yes"/>
      <point x="324" y="-18"/>
      <point x="81" y="196"/>
      <point x="81" y="505" type="curve" smooth="yes"/>
      <point x="81" y="950"/>
      <point x="515" y="1301"/>
      <point x="905" y="1301" type="curve" smooth="yes"/>
      <point x="1212" y="1301"/>
      <point x="1456" y="1091"/>
    </contour>
    <contour>
      <point x="662" y="73" type="curve" smooth="yes"/>
      <point x="819" y="73"/>
      <point x="977" y="137"/>
      <point x="1100" y="246" type="curve"/>
      <point x="900" y="246" type="line"/>
      <point x="874" y="300" type="line"/>
      <point x="830" y="401"/>
      <point x="779" y="524"/>
      <point x="740" y="649" type="curve"/>
      <point x="661" y="649" type="line"/>
      <point x="642" y="551" type="line" smooth="yes"/>
      <point x="629" y="480"/>
      <point x="620" y="406"/>
      <point x="603" y="342" type="curve" smooth="yes"/>
      <point x="602" y="337"/>
      <point x="601" y="330"/>
      <point x="601" y="328" type="curve" smooth="yes"/>
      <point x="601" y="293"/>
      <point x="639" y="281"/>
      <point x="671" y="275" type="curve"/>
      <point x="670" y="247" type="line"/>
      <point x="357" y="247" type="line"/>
      <point x="356" y="275" type="line"/>
      <point x="394" y="283"/>
      <point x="447" y="305"/>
      <point x="463" y="354" type="curve"/>
      <point x="589" y="956" type="line" smooth="yes"/>
      <point x="591" y="962"/>
      <point x="592" y="969"/>
      <point x="592" y="972" type="curve" smooth="yes"/>
      <point x="592" y="1014"/>
      <point x="546" y="1032"/>
      <point x="517" y="1045" type="curve"/>
      <point x="518" y="1071" type="line"/>
      <point x="873" y="1071" type="line" smooth="yes"/>
      <point x="1003" y="1071"/>
      <point x="1150" y="1027"/>
      <point x="1150" y="901" type="curve" smooth="yes"/>
      <point x="1150" y="758"/>
      <point x="998" y="684"/>
      <point x="877" y="657" type="curve"/>
      <point x="913" y="583"/>
      <point x="998" y="326"/>
      <point x="1067" y="285" type="curve"/>
      <point x="1067" y="286" type="line"/>
      <point x="1077" y="281" type="line"/>
      <point x="1078" y="278"/>
      <point x="1082" y="269"/>
      <point x="1101" y="247" type="curve"/>
      <point x="1242" y="370"/>
      <point x="1339" y="552"/>
      <point x="1339" y="762" type="curve" smooth="yes"/>
      <point x="1339" y="1025"/>
      <point x="1173" y="1219"/>
      <point x="895" y="1219" type="curve" smooth="yes"/>
      <point x="514" y="1219"/>
      <point x="199" y="881"/>
      <point x="199" y="519" type="curve" smooth="yes"/>
      <point x="199" y="261"/>
      <point x="375" y="73"/>
    </contour>
    <contour>
      <point x="996" y="899" type="curve" smooth="yes"/>
      <point x="996" y="1019"/>
      <point x="860" y="1033"/>
      <point x="756" y="1034" type="curve" smooth="yes"/>
      <point x="752" y="1034"/>
      <point x="749" y="1034"/>
      <point x="749" y="1033" type="curve"/>
      <point x="749" y="1034" type="line"/>
      <point x="718" y="926"/>
      <point x="690" y="802"/>
      <point x="667" y="683" type="curve"/>
      <point x="800" y="685"/>
      <point x="996" y="717"/>
    </contour>
    <contour>
      <point x="877" y="657" type="line"/>
      <point x="876" y="657" type="line"/>
      <point x="876" y="656"/>
      <point x="877" y="656"/>
      <point x="877" y="654" type="curve"/>
    </contour>
  </outline>
</glyph>
<glyph name="plusminus" format="1">
  <advance width="917"/>
  <unicode hex="00B1"/>
  <outline>
    <contour>
      <point x="609" y="-55" type="line"/>
      <point x="42" y="-55" type="line"/>
      <point x="61" y="39" type="line"/>
      <point x="628" y="39" type="line"/>
    </contour>
    <contour>
      <point x="34" y="605" type="curve"/>
      <point x="33" y="607" type="line"/>
      <point x="88" y="623"/>
      <point x="164" y="627"/>
      <point x="238" y="627" type="curve" smooth="yes"/>
      <point x="301" y="627"/>
      <point x="361" y="624"/>
      <point x="399" y="624" type="curve" smooth="yes"/>
      <point x="413" y="624" type="line"/>
      <point x="439" y="746"/>
      <point x="448" y="894"/>
      <point x="498" y="998" type="curve" smooth="yes"/>
      <point x="505" y="1013"/>
      <point x="529" y="999"/>
      <point x="545" y="999" type="curve" smooth="yes"/>
      <point x="558" y="999"/>
      <point x="574" y="999"/>
      <point x="585" y="998" type="curve"/>
      <point x="575" y="883"/>
      <point x="542" y="759"/>
      <point x="517" y="644" type="curve"/>
      <point x="513" y="623" type="line"/>
      <point x="534" y="623" type="line" smooth="yes"/>
      <point x="589" y="623"/>
      <point x="645" y="624"/>
      <point x="702" y="624" type="curve" smooth="yes"/>
      <point x="765" y="624"/>
      <point x="829" y="622"/>
      <point x="886" y="615" type="curve"/>
      <point x="883" y="585"/>
      <point x="889" y="539"/>
      <point x="867" y="528" type="curve" smooth="yes"/>
      <point x="822" y="505"/>
      <point x="756" y="520"/>
      <point x="698" y="520" type="curve" smooth="yes"/>
      <point x="633" y="520"/>
      <point x="567" y="522"/>
      <point x="505" y="522" type="curve" smooth="yes"/>
      <point x="491" y="522" type="line"/>
      <point x="465" y="399"/>
      <point x="453" y="254"/>
      <point x="404" y="148" type="curve" smooth="yes"/>
      <point x="397" y="134"/>
      <point x="374" y="147"/>
      <point x="358" y="147" type="curve" smooth="yes"/>
      <point x="345" y="147"/>
      <point x="329" y="148"/>
      <point x="318" y="149" type="curve"/>
      <point x="332" y="274"/>
      <point x="367" y="401"/>
      <point x="391" y="523" type="curve"/>
      <point x="53" y="523" type="line"/>
      <point x="33" y="537"/>
      <point x="29" y="548"/>
      <point x="29" y="569" type="curve" smooth="yes"/>
      <point x="29" y="578"/>
      <point x="31" y="592"/>
    </contour>
  </outline>
</glyph>
<glyph name="twosuperior" format="1">
  <advance width="766"/>
  <unicode hex="00B2"/>
  <outline>
    <contour>
      <point x="330" y="469" type="line"/>
      <point x="493" y="623"/>
      <point x="816" y="836"/>
      <point x="862" y="1050" type="curve" smooth="yes"/>
      <point x="899" y="1226"/>
      <point x="776" y="1298"/>
      <point x="616" y="1298" type="curve" smooth="yes"/>
      <point x="529" y="1298"/>
      <point x="403" y="1257"/>
      <point x="336" y="1182" type="curve"/>
      <point x="334" y="1178"/>
      <point x="331" y="1174"/>
      <point x="330" y="1170" type="curve" smooth="yes"/>
      <point x="328" y="1162"/>
      <point x="333" y="1154"/>
      <point x="339" y="1151" type="curve"/>
      <point x="426" y="1174"/>
      <point x="490" y="1227"/>
      <point x="584" y="1227" type="curve" smooth="yes"/>
      <point x="687" y="1227"/>
      <point x="699" y="1136"/>
      <point x="680" y="1048" type="curve" smooth="yes"/>
      <point x="633" y="824"/>
      <point x="341" y="593"/>
      <point x="178" y="422" type="curve"/>
      <point x="181" y="382" type="line"/>
      <point x="238" y="383"/>
      <point x="296" y="383"/>
      <point x="353" y="383" type="curve" smooth="yes"/>
      <point x="468" y="383"/>
      <point x="583" y="382"/>
      <point x="698" y="382" type="curve"/>
      <point x="712" y="383" type="line"/>
      <point x="787" y="655" type="line"/>
      <point x="783" y="656"/>
      <point x="777" y="658"/>
      <point x="772" y="658" type="curve" smooth="yes"/>
      <point x="714" y="658"/>
      <point x="731" y="503"/>
      <point x="597" y="492" type="curve" smooth="yes"/>
    </contour>
  </outline>
</glyph>
<glyph name="mu" format="1">
  <advance width="1238"/>
  <unicode hex="00B5"/>
  <unicode hex="03BC"/>
  <outline>
    <contour>
      <point x="311" y="169" type="curve" smooth="yes"/>
      <point x="311" y="133"/>
      <point x="331" y="103"/>
      <point x="366" y="103" type="curve" smooth="yes"/>
      <point x="459" y="103"/>
      <point x="694" y="506"/>
      <point x="806" y="676" type="curve"/>
      <point x="859" y="752"/>
      <point x="935" y="891"/>
      <point x="1026" y="891" type="curve" smooth="yes"/>
      <point x="1069" y="891"/>
      <point x="1089" y="842"/>
      <point x="1089" y="792" type="curve" smooth="yes"/>
      <point x="1089" y="770"/>
      <point x="1085" y="749"/>
      <point x="1081" y="731" type="curve"/>
      <point x="935" y="240" type="line" smooth="yes"/>
      <point x="930" y="222"/>
      <point x="919" y="183"/>
      <point x="919" y="150" type="curve" smooth="yes"/>
      <point x="919" y="119"/>
      <point x="928" y="91"/>
      <point x="960" y="91" type="curve" smooth="yes"/>
      <point x="1012" y="91"/>
      <point x="1050" y="137"/>
      <point x="1116" y="229" type="curve" smooth="yes"/>
      <point x="1174" y="310" type="line"/>
      <point x="1231" y="264" type="line"/>
      <point x="1174" y="185" type="line"/>
      <point x="1094" y="66"/>
      <point x="1021" y="-19"/>
      <point x="903" y="-19" type="curve" smooth="yes"/>
      <point x="814" y="-19"/>
      <point x="769" y="50"/>
      <point x="769" y="130" type="curve" smooth="yes"/>
      <point x="769" y="273"/>
      <point x="845" y="459"/>
      <point x="892" y="582" type="curve" smooth="yes"/>
      <point x="917" y="648" type="line"/>
      <point x="901" y="656" type="line"/>
      <point x="783" y="462"/>
      <point x="549" y="-19"/>
      <point x="317" y="-19" type="curve" smooth="yes"/>
      <point x="236" y="-19"/>
      <point x="191" y="10"/>
      <point x="169" y="57" type="curve"/>
      <point x="101" y="-172"/>
      <point x="87" y="-226"/>
      <point x="16" y="-216" type="curve" smooth="yes"/>
      <point x="-50" y="-206"/>
      <point x="-6" y="-113"/>
      <point x="8" y="-73" type="curve"/>
      <point x="63" y="61"/>
      <point x="188" y="350"/>
      <point x="208" y="402" type="curve" smooth="yes"/>
      <point x="262" y="544"/>
      <point x="324" y="681"/>
      <point x="324" y="726" type="curve" smooth="yes"/>
      <point x="324" y="755"/>
      <point x="306" y="778"/>
      <point x="274" y="778" type="curve" smooth="yes"/>
      <point x="190" y="778"/>
      <point x="94" y="579"/>
      <point x="65" y="539" type="curve"/>
      <point x="12" y="587" type="line"/>
      <point x="78" y="719"/>
      <point x="207" y="891"/>
      <point x="355" y="891" type="curve" smooth="yes"/>
      <point x="451" y="891"/>
      <point x="484" y="843"/>
      <point x="484" y="770" type="curve" smooth="yes"/>
      <point x="484" y="605"/>
      <point x="311" y="312"/>
    </contour>
  </outline>
</glyph>
<glyph name="paragraph" format="1">
  <advance width="1085"/>
  <unicode hex="00B6"/>
  <outline>
    <contour>
      <point x="102" y="844" type="curve" smooth="yes"/>
      <point x="102" y="1193"/>
      <point x="423" y="1285"/>
      <point x="686" y="1285" type="curve" smooth="yes"/>
      <point x="1134" y="1285" type="line"/>
      <point x="1132" y="1273" type="line"/>
      <point x="1099" y="1257"/>
      <point x="964" y="1277"/>
      <point x="950" y="1211" type="curve" smooth="yes"/>
      <point x="675" y="-110" type="line" smooth="yes"/>
      <point x="674" y="-112"/>
      <point x="673" y="-114"/>
      <point x="673" y="-118" type="curve" smooth="yes"/>
      <point x="673" y="-171"/>
      <point x="803" y="-165"/>
      <point x="830" y="-168" type="curve"/>
      <point x="822" y="-210" type="line"/>
      <point x="596" y="-210" type="line"/>
      <point x="899" y="1234" type="line"/>
      <point x="724" y="1234" type="line"/>
      <point x="421" y="-210" type="line"/>
      <point x="164" y="-210" type="line"/>
      <point x="172" y="-170" type="line"/>
      <point x="200" y="-164"/>
      <point x="371" y="-175"/>
      <point x="383" y="-118" type="curve" smooth="yes"/>
      <point x="532" y="592" type="line"/>
      <point x="511" y="592" type="line" smooth="yes"/>
      <point x="289" y="592"/>
      <point x="102" y="642"/>
    </contour>
  </outline>
</glyph>
<glyph name="questiondown" format="1">
  <advance width="806"/>
  <unicode hex="00BF"/>
  <outline>
    <contour>
      <point x="723" y="1080" type="curve" smooth="yes"/>
      <point x="791" y="1080"/>
      <point x="858" y="1138"/>
      <point x="873" y="1205" type="curve" smooth="yes"/>
      <point x="887" y="1271"/>
      <point x="843" y="1329"/>
      <point x="776" y="1329" type="curve" smooth="yes"/>
      <point x="709" y="1329"/>
      <point x="638" y="1273"/>
      <point x="624" y="1205" type="curve" smooth="yes"/>
      <point x="609" y="1137"/>
      <point x="655" y="1080"/>
    </contour>
    <contour>
      <point x="663" y="958" type="line"/>
      <point x="655" y="919" type="line" smooth="yes"/>
      <point x="601" y="667"/>
      <point x="217" y="703"/>
      <point x="141" y="346" type="curve" smooth="yes"/>
      <point x="100" y="155"/>
      <point x="277" y="-13"/>
      <point x="471" y="-13" type="curve" smooth="yes"/>
      <point x="576" y="-13"/>
      <point x="734" y="22"/>
      <point x="759" y="137" type="curve" smooth="yes"/>
      <point x="767" y="178"/>
      <point x="744" y="220"/>
      <point x="700" y="220" type="curve" smooth="yes"/>
      <point x="612" y="220"/>
      <point x="555" y="98"/>
      <point x="466" y="98" type="curve" smooth="yes"/>
      <point x="342" y="98"/>
      <point x="248" y="206"/>
      <point x="275" y="332" type="curve" smooth="yes"/>
      <point x="324" y="560"/>
      <point x="706" y="626"/>
      <point x="730" y="740" type="curve" smooth="yes"/>
      <point x="746" y="814"/>
      <point x="736" y="885"/>
      <point x="744" y="958" type="curve"/>
    </contour>
  </outline>
</glyph>
<glyph name="Ecircumflex" format="1">
  <advance width="1684"/>
  <unicode hex="00CA"/>
  <outline>
    <contour>
      <point x="1594" y="503" type="line" smooth="yes"/>
      <point x="1611" y="503"/>
      <point x="1638" y="435"/>
      <point x="1638" y="408" type="curve" smooth="yes"/>
      <point x="1638" y="401"/>
      <point x="1639" y="392"/>
      <point x="1636" y="392" type="curve" smooth="yes"/>
      <point x="58" y="370" type="line" smooth="yes"/>
      <point x="28" y="369"/>
      <point x="16" y="425"/>
      <point x="16" y="451" type="curve" smooth="yes"/>
      <point x="16" y="484"/>
      <point x="25" y="503"/>
      <point x="50" y="503" type="curve" smooth="yes"/>
    </contour>
  </outline>
</glyph>
<glyph name="Oslash" format="1">
  <advance width="1197"/>
  <unicode hex="00D8"/>
  <outline>
    <contour>
      <point x="400" y="132" type="curve"/>
      <point x="437" y="102"/>
      <point x="485" y="84"/>
      <point x="542" y="84" type="curve" smooth="yes"/>
      <point x="543" y="84" type="line" smooth="yes"/>
      <point x="794" y="84"/>
      <point x="959" y="447"/>
      <point x="959" y="730" type="curve" smooth="yes"/>
      <point x="959" y="840"/>
      <point x="933" y="929"/>
      <point x="891" y="1007" type="curve"/>
      <point x="735" y="718"/>
      <point x="555" y="418"/>
    </contour>
    <contour>
      <point x="842" y="1101" type="line"/>
      <point x="799" y="1144"/>
      <point x="738" y="1168"/>
      <point x="667" y="1168" type="curve" smooth="yes"/>
      <point x="430" y="1168"/>
      <point x="274" y="799"/>
      <point x="274" y="516" type="curve" smooth="yes"/>
      <point x="274" y="396"/>
      <point x="302" y="294"/>
      <point x="354" y="216" type="curve"/>
      <point x="811" y="1038" type="line"/>
    </contour>
    <contour>
      <point x="662" y="1254" type="curve" smooth="yes"/>
      <point x="745" y="1254"/>
      <point x="818" y="1229"/>
      <point x="889" y="1193" type="curve"/>
      <point x="922" y="1259"/>
      <point x="967" y="1326"/>
      <point x="996" y="1343" type="curve"/>
      <point x="1004" y="1335"/>
      <point x="1039" y="1333"/>
      <point x="1047" y="1329" type="curve"/>
      <point x="1017" y="1268"/>
      <point x="989" y="1204"/>
      <point x="953" y="1144" type="curve"/>
      <point x="957" y="1140" type="line"/>
      <point x="1073" y="1044"/>
      <point x="1151" y="889"/>
      <point x="1151" y="689" type="curve" smooth="yes"/>
      <point x="1151" y="349"/>
      <point x="893" y="-23"/>
      <point x="556" y="-23" type="curve" smooth="yes"/>
      <point x="487" y="-23"/>
      <point x="413" y="-2"/>
      <point x="354" y="38" type="curve"/>
      <point x="326" y="-17"/>
      <point x="293" y="-83"/>
      <point x="254" y="-127" type="curve" smooth="yes"/>
      <point x="246" y="-136"/>
      <point x="230" y="-130"/>
      <point x="217" y="-130" type="curve" smooth="yes"/>
      <point x="207" y="-130" type="line"/>
      <point x="211" y="-76"/>
      <point x="234" y="-24"/>
      <point x="264" y="28" type="curve" smooth="yes"/>
      <point x="297" y="85" type="line"/>
      <point x="174" y="184"/>
      <point x="88" y="354"/>
      <point x="88" y="550" type="curve" smooth="yes"/>
      <point x="88" y="907"/>
      <point x="335" y="1254"/>
    </contour>
  </outline>
</glyph>
<glyph name="germandbls" format="1">
  <advance width="1100"/>
  <unicode hex="00DF"/>
  <outline>
    <contour>
      <point x="715" y="694" type="line"/>
      <point x="925" y="664"/>
      <point x="1044" y="535"/>
      <point x="1044" y="363" type="curve" smooth="yes"/>
      <point x="1044" y="203"/>
      <point x="900" y="-17"/>
      <point x="683" y="-17" type="curve" smooth="yes"/>
      <point x="573" y="-17"/>
      <point x="520" y="31"/>
      <point x="520" y="82" type="curve" smooth="yes"/>
      <point x="520" y="131"/>
      <point x="557" y="169"/>
      <point x="596" y="169" type="curve" smooth="yes"/>
      <point x="627" y="169"/>
      <point x="630" y="157"/>
      <point x="630" y="130" type="curve" smooth="yes"/>
      <point x="630" y="107" type="line" smooth="yes"/>
      <point x="630" y="71"/>
      <point x="637" y="21"/>
      <point x="703" y="21" type="curve" smooth="yes"/>
      <point x="775" y="21"/>
      <point x="851" y="158"/>
      <point x="851" y="361" type="curve" smooth="yes"/>
      <point x="851" y="545"/>
      <point x="736" y="639"/>
      <point x="573" y="689" type="curve"/>
      <point x="576" y="699"/>
      <point x="583" y="717"/>
      <point x="589" y="718" type="curve" smooth="yes"/>
      <point x="751" y="740"/>
      <point x="858" y="864"/>
      <point x="858" y="1032" type="curve" smooth="yes"/>
      <point x="858" y="1138"/>
      <point x="780" y="1195"/>
      <point x="690" y="1195" type="curve" smooth="yes"/>
      <point x="507" y="1195"/>
      <point x="457" y="992"/>
      <point x="424" y="841" type="curve" smooth="yes"/>
      <point x="290" y="226" type="line" smooth="yes"/>
      <point x="287" y="213"/>
      <point x="285" y="201"/>
      <point x="285" y="189" type="curve" smooth="yes"/>
      <point x="285" y="115"/>
      <point x="355" y="108"/>
      <point x="432" y="104" type="curve" smooth="yes"/>
      <point x="436" y="104"/>
      <point x="436" y="92"/>
      <point x="436" y="76" type="curve" smooth="yes"/>
      <point x="436" y="46"/>
      <point x="427" y="34"/>
      <point x="422" y="34" type="curve" smooth="yes"/>
      <point x="-65" y="34" type="line" smooth="yes"/>
      <point x="-68" y="34"/>
      <point x="-72" y="34"/>
      <point x="-72" y="51" type="curve" smooth="yes"/>
      <point x="-72" y="79"/>
      <point x="-56" y="104"/>
      <point x="-52" y="104" type="curve" smooth="yes"/>
      <point x="25" y="104"/>
      <point x="102" y="113"/>
      <point x="130" y="239" type="curve" smooth="yes"/>
      <point x="251" y="785" type="line"/>
      <point x="301" y="1031"/>
      <point x="471" y="1254"/>
      <point x="712" y="1254" type="curve" smooth="yes"/>
      <point x="899" y="1254"/>
      <point x="1018" y="1169"/>
      <point x="1018" y="1043" type="curve" smooth="yes"/>
      <point x="1018" y="864"/>
      <point x="879" y="779"/>
      <point x="715" y="724" type="curve"/>
    </contour>
  </outline>
</glyph>
<glyph name="ae" format="1">
  <advance width="1404"/>
  <unicode hex="00E6"/>
  <outline>
    <contour>
      <point x="798" y="454" type="curve" smooth="yes"/>
      <point x="798" y="441"/>
      <point x="802" y="421"/>
      <point x="809" y="408" type="curve"/>
      <point x="819" y="408" type="line" smooth="yes"/>
      <point x="907" y="408"/>
      <point x="1159" y="430"/>
      <point x="1159" y="587" type="curve" smooth="yes"/>
      <point x="1159" y="694"/>
      <point x="1073" y="702"/>
      <point x="1021" y="702" type="curve" smooth="yes"/>
      <point x="906" y="702"/>
      <point x="798" y="575"/>
    </contour>
    <contour>
      <point x="249" y="251" type="line"/>
      <point x="258" y="203"/>
      <point x="293" y="100"/>
      <point x="370" y="100" type="curve" smooth="yes"/>
      <point x="541" y="100"/>
      <point x="624" y="326"/>
      <point x="624" y="483" type="curve" smooth="yes"/>
      <point x="624" y="529"/>
      <point x="594" y="707"/>
      <point x="469" y="707" type="curve" smooth="yes"/>
      <point x="306" y="707"/>
      <point x="244" y="483"/>
      <point x="244" y="330" type="curve" smooth="yes"/>
      <point x="244" y="302"/>
      <point x="247" y="275"/>
      <point x="249" y="252" type="curve"/>
    </contour>
    <contour>
      <point x="628" y="166" type="curve"/>
      <point x="566" y="89"/>
      <point x="474" y="-11"/>
      <point x="365" y="-11" type="curve" smooth="yes"/>
      <point x="218" y="-11"/>
      <point x="94" y="128"/>
      <point x="70" y="271" type="curve"/>
      <point x="70" y="272" type="line"/>
      <point x="71" y="271" type="line"/>
      <point x="66" y="291"/>
      <point x="65" y="311"/>
      <point x="65" y="333" type="curve" smooth="yes"/>
      <point x="65" y="560"/>
      <point x="257" y="777"/>
      <point x="471" y="777" type="curve" smooth="yes"/>
      <point x="535" y="777"/>
      <point x="591" y="710"/>
      <point x="663" y="710" type="curve" smooth="yes"/>
      <point x="725" y="710"/>
      <point x="718" y="778"/>
      <point x="752" y="778" type="curve" smooth="yes"/>
      <point x="801" y="778"/>
      <point x="826" y="710"/>
      <point x="862" y="710" type="curve" smooth="yes"/>
      <point x="927" y="710"/>
      <point x="1024" y="776"/>
      <point x="1079" y="776" type="curve" smooth="yes"/>
      <point x="1205" y="776"/>
      <point x="1317" y="705"/>
      <point x="1317" y="567" type="curve" smooth="yes"/>
      <point x="1317" y="355"/>
      <point x="968" y="312"/>
      <point x="790" y="302" type="curve"/>
      <point x="809" y="132"/>
      <point x="851" y="101"/>
      <point x="978" y="101" type="curve" smooth="yes"/>
      <point x="1136" y="101"/>
      <point x="1187" y="253"/>
      <point x="1260" y="253" type="curve" smooth="yes"/>
      <point x="1282" y="253"/>
      <point x="1299" y="240"/>
      <point x="1299" y="211" type="curve" smooth="yes"/>
      <point x="1299" y="67"/>
      <point x="1113" y="-12"/>
      <point x="961" y="-12" type="curve" smooth="yes"/>
      <point x="825" y="-12"/>
      <point x="731" y="55"/>
    </contour>
  </outline>
</glyph>
<glyph name="breve" format="1">
  <advance width="701"/>
  <unicode hex="02D8"/>
  <outline>
    <contour>
      <point x="351" y="872" type="move" name="_top"/>
    </contour>
    <contour>
      <point x="183" y="1210" type="curve"/>
      <point x="213" y="1210" type="line"/>
      <point x="240" y="1126"/>
      <point x="304" y="1094"/>
      <point x="392" y="1094" type="curve" smooth="yes"/>
      <point x="475" y="1094"/>
      <point x="568" y="1125"/>
      <point x="615" y="1210" type="curve"/>
      <point x="641" y="1210" type="line"/>
      <point x="605" y="1077"/>
      <point x="503" y="997"/>
      <point x="365" y="997" type="curve" smooth="yes"/>
      <point x="235" y="997"/>
      <point x="180" y="1065"/>
      <point x="180" y="1168" type="curve" smooth="yes"/>
      <point x="180" y="1181"/>
      <point x="181" y="1195"/>
    </contour>
  </outline>
</glyph>
<glyph name="ring" format="1">
  <advance width="635"/>
  <unicode hex="02DA"/>
  <outline>
    <contour>
      <point x="322" y="871" type="move" name="_top"/>
    </contour>
    <contour>
      <point x="422" y="1347" type="curve" smooth="yes"/>
      <point x="520" y="1347"/>
      <point x="584" y="1280"/>
      <point x="584" y="1191" type="curve" smooth="yes"/>
      <point x="584" y="1093"/>
      <point x="494" y="997"/>
      <point x="364" y="997" type="curve" smooth="yes"/>
      <point x="266" y="997"/>
      <point x="199" y="1058"/>
      <point x="199" y="1142" type="curve" smooth="yes"/>
      <point x="199" y="1247"/>
      <point x="293" y="1347"/>
    </contour>
    <contour>
      <point x="416" y="1298" type="curve" smooth="yes"/>
      <point x="334" y="1298"/>
      <point x="263" y="1226"/>
      <point x="263" y="1148" type="curve" smooth="yes"/>
      <point x="263" y="1092"/>
      <point x="297" y="1047"/>
      <point x="369" y="1047" type="curve" smooth="yes"/>
      <point x="455" y="1047"/>
      <point x="521" y="1116"/>
      <point x="521" y="1195" type="curve" smooth="yes"/>
      <point x="521" y="1252"/>
      <point x="478" y="1298"/>
    </contour>
  </outline>
</glyph>
<glyph name="ogonek" format="1">
  <advance width="581"/>
  <unicode hex="02DB"/>
  <outline>
    <contour>
      <point x="271" y="0" type="move" name="_bot"/>
    </contour>
    <contour>
      <point x="280" y="0" type="move" name="_bot"/>
    </contour>
    <contour>
      <point x="307" y="0" type="line"/>
      <point x="258" y="-42"/>
      <point x="213" y="-92"/>
      <point x="213" y="-168" type="curve" smooth="yes"/>
      <point x="213" y="-247"/>
      <point x="285" y="-282"/>
      <point x="354" y="-282" type="curve" smooth="yes"/>
      <point x="389" y="-282"/>
      <point x="426" y="-272"/>
      <point x="456" y="-261" type="curve"/>
      <point x="453" y="-304" type="line"/>
      <point x="396" y="-338"/>
      <point x="335" y="-355"/>
      <point x="265" y="-355" type="curve" smooth="yes"/>
      <point x="173" y="-355"/>
      <point x="104" y="-309"/>
      <point x="104" y="-228" type="curve" smooth="yes"/>
      <point x="104" y="-130"/>
      <point x="166" y="-52"/>
      <point x="246" y="0" type="curve"/>
    </contour>
  </outline>
</glyph>
<glyph name="dotaccentcmb" format="1">
  <advance width="443"/>
  <unicode hex="0307"/>
  <outline>
    <contour>
      <point x="258" y="883" type="curve" smooth="yes"/>
      <point x="302" y="883"/>
      <point x="330" y="853"/>
      <point x="330" y="813" type="curve" smooth="yes"/>
      <point x="330" y="753"/>
      <point x="269" y="699"/>
      <point x="211" y="699" type="curve" smooth="yes"/>
      <point x="169" y="699"/>
      <point x="140" y="727"/>
      <point x="140" y="768" type="curve" smooth="yes"/>
      <point x="140" y="827"/>
      <point x="200" y="883"/>
    </contour>
  </outline>
</glyph>
<glyph name="quotedblleft" format="1">
  <advance width="844"/>
  <unicode hex="201C"/>
  <outline>
    <contour>
      <point x="701" y="1210" type="curve"/>
      <point x="769" y="1124" type="line"/>
      <point x="707" y="1083"/>
      <point x="669" y="1064"/>
      <point x="669" y="1001" type="curve" smooth="yes"/>
      <point x="669" y="963"/>
      <point x="717" y="890"/>
      <point x="717" y="853" type="curve" smooth="yes"/>
      <point x="717" y="814"/>
      <point x="677" y="776"/>
      <point x="623" y="776" type="curve" smooth="yes"/>
      <point x="549" y="776"/>
      <point x="495" y="839"/>
      <point x="495" y="930" type="curve" smooth="yes"/>
      <point x="495" y="1042"/>
      <point x="602" y="1150"/>
    </contour>
    <contour>
      <point x="350" y="1211" type="curve"/>
      <point x="418" y="1125" type="line"/>
      <point x="356" y="1084"/>
      <point x="318" y="1065"/>
      <point x="318" y="1002" type="curve" smooth="yes"/>
      <point x="318" y="964"/>
      <point x="366" y="891"/>
      <point x="366" y="854" type="curve" smooth="yes"/>
      <point x="366" y="815"/>
      <point x="326" y="777"/>
      <point x="272" y="777" type="curve" smooth="yes"/>
      <point x="198" y="777"/>
      <point x="144" y="840"/>
      <point x="144" y="931" type="curve" smooth="yes"/>
      <point x="144" y="1043"/>
      <point x="251" y="1151"/>
    </contour>
  </outline>
</glyph>
<glyph name="ff" format="1">
  <advance width="1454"/>
  <unicode hex="FB00"/>
  <outline>
    <contour>
      <point x="1325" y="727" type="line"/>
      <point x="997" y="727" type="line"/>
      <point x="904" y="337" type="line" smooth="yes"/>
      <point x="835" y="46"/>
      <point x="800" y="-229"/>
      <point x="578" y="-316" type="curve"/>
      <point x="527" y="-292" type="line"/>
      <point x="568" y="-234"/>
      <point x="636" y="-62"/>
      <point x="717" y="282" type="curve" smooth="yes"/>
      <point x="822" y="727" type="line"/>
      <point x="488" y="727" type="line"/>
      <point x="390" y="324" type="line"/>
      <point x="321" y="33"/>
      <point x="286" y="-242"/>
      <point x="64" y="-329" type="curve"/>
      <point x="13" y="-305" type="line"/>
      <point x="54" y="-247"/>
      <point x="136" y="-62"/>
      <point x="217" y="282" type="curve" smooth="yes"/>
      <point x="322" y="727" type="line"/>
      <point x="75" y="727" type="line"/>
      <point x="99" y="817" type="line"/>
      <point x="346" y="817" type="line"/>
      <point x="366" y="899" type="line" smooth="yes"/>
      <point x="416" y="1104"/>
      <point x="521" y="1239"/>
      <point x="743" y="1239" type="curve" smooth="yes"/>
      <point x="832" y="1239"/>
      <point x="947" y="1211"/>
      <point x="1009" y="1146" type="curve"/>
      <point x="1080" y="1215"/>
      <point x="1169" y="1248"/>
      <point x="1283" y="1248" type="curve" smooth="yes"/>
      <point x="1398" y="1248"/>
      <point x="1566" y="1228"/>
      <point x="1566" y="1087" type="curve" smooth="yes"/>
      <point x="1566" y="1051"/>
      <point x="1535" y="1016"/>
      <point x="1484" y="1016" type="curve" smooth="yes"/>
      <point x="1392" y="1016"/>
      <point x="1381" y="1165"/>
      <point x="1253" y="1165" type="curve" smooth="yes"/>
      <point x="1097" y="1165"/>
      <point x="993" y="1042"/>
      <point x="993" y="926" type="curve" smooth="yes"/>
      <point x="993" y="891"/>
      <point x="1001" y="855"/>
      <point x="1017" y="817" type="curve"/>
      <point x="1352" y="817" type="line"/>
    </contour>
    <contour>
      <point x="671" y="1158" type="curve"/>
      <point x="671" y="1159" type="line"/>
      <point x="600" y="1159"/>
      <point x="476" y="1080"/>
      <point x="476" y="937" type="curve" smooth="yes"/>
      <point x="476" y="901"/>
      <point x="484" y="861"/>
      <point x="503" y="817" type="curve"/>
      <point x="843" y="817" type="line"/>
      <point x="864" y="898"/>
      <point x="890" y="967"/>
      <point x="920" y="1025" type="curve"/>
      <point x="844" y="1057"/>
      <point x="765" y="1158"/>
    </contour>
  </outline>
</glyph>
<glyph name="fi" format="1">
  <advance width="1166"/>
  <unicode hex="FB01"/>
  <outline>
    <contour>
      <point x="13" y="-292" type="line"/>
      <point x="54" y="-234"/>
      <point x="124" y="-62"/>
      <point x="203" y="282" type="curve"/>
      <point x="308" y="727" type="line"/>
      <point x="104" y="727" type="line"/>
      <point x="125" y="817" type="line"/>
      <point x="329" y="817" type="line"/>
      <point x="408" y="1115"/>
      <point x="540" y="1248"/>
      <point x="769" y="1248" type="curve" smooth="yes"/>
      <point x="884" y="1248"/>
      <point x="1052" y="1228"/>
      <point x="1052" y="1087" type="curve" smooth="yes"/>
      <point x="1052" y="1051"/>
      <point x="1021" y="1016"/>
      <point x="970" y="1016" type="curve" smooth="yes"/>
      <point x="878" y="1016"/>
      <point x="867" y="1165"/>
      <point x="739" y="1165" type="curve" smooth="yes"/>
      <point x="583" y="1165"/>
      <point x="479" y="1042"/>
      <point x="479" y="926" type="curve" smooth="yes"/>
      <point x="479" y="891"/>
      <point x="487" y="855"/>
      <point x="503" y="817" type="curve"/>
      <point x="1002" y="817" type="line"/>
      <point x="1011" y="711" type="line"/>
      <point x="868" y="258" type="line" smooth="yes"/>
      <point x="857" y="224"/>
      <point x="853" y="197"/>
      <point x="853" y="172" type="curve" smooth="yes"/>
      <point x="853" y="132"/>
      <point x="866" y="92"/>
      <point x="905" y="92" type="curve" smooth="yes"/>
      <point x="946" y="92"/>
      <point x="992" y="132"/>
      <point x="1044" y="210" type="curve" smooth="yes"/>
      <point x="1101" y="296" type="line"/>
      <point x="1166" y="251" type="line"/>
      <point x="1105" y="162" type="line" smooth="yes"/>
      <point x="1044" y="73"/>
      <point x="957" y="-19"/>
      <point x="839" y="-19" type="curve" smooth="yes"/>
      <point x="744" y="-19"/>
      <point x="691" y="65"/>
      <point x="691" y="164" type="curve" smooth="yes"/>
      <point x="691" y="231"/>
      <point x="716" y="301"/>
      <point x="736" y="370" type="curve" smooth="yes"/>
      <point x="841" y="727" type="line"/>
      <point x="483" y="727" type="line"/>
      <point x="390" y="337" type="line" smooth="yes"/>
      <point x="321" y="46"/>
      <point x="286" y="-229"/>
      <point x="64" y="-316" type="curve"/>
    </contour>
  </outline>
</glyph>
<glyph name="ffi" format="1">
  <advance width="1650"/>
  <unicode hex="FB03"/>
  <outline>
    <contour>
      <point x="527" y="-292" type="line"/>
      <point x="568" y="-234"/>
      <point x="636" y="-62"/>
      <point x="717" y="282" type="curve" smooth="yes"/>
      <point x="822" y="727" type="line"/>
      <point x="488" y="727" type="line"/>
      <point x="390" y="324" type="line"/>
      <point x="321" y="33"/>
      <point x="286" y="-242"/>
      <point x="64" y="-329" type="curve"/>
      <point x="13" y="-305" type="line"/>
      <point x="54" y="-247"/>
      <point x="136" y="-62"/>
      <point x="217" y="282" type="curve" smooth="yes"/>
      <point x="322" y="727" type="line"/>
      <point x="75" y="727" type="line"/>
      <point x="99" y="817" type="line"/>
      <point x="346" y="817" type="line"/>
      <point x="366" y="899" type="line" smooth="yes"/>
      <point x="416" y="1104"/>
      <point x="521" y="1239"/>
      <point x="743" y="1239" type="curve" smooth="yes"/>
      <point x="832" y="1239"/>
      <point x="947" y="1211"/>
      <point x="1009" y="1146" type="curve"/>
      <point x="1080" y="1215"/>
      <point x="1169" y="1248"/>
      <point x="1283" y="1248" type="curve" smooth="yes"/>
      <point x="1398" y="1248"/>
      <point x="1566" y="1228"/>
      <point x="1566" y="1087" type="curve" smooth="yes"/>
      <point x="1566" y="1051"/>
      <point x="1535" y="1016"/>
      <point x="1484" y="1016" type="curve" smooth="yes"/>
      <point x="1392" y="1016"/>
      <point x="1381" y="1165"/>
      <point x="1253" y="1165" type="curve" smooth="yes"/>
      <point x="1097" y="1165"/>
      <point x="993" y="1042"/>
      <point x="993" y="926" type="curve" smooth="yes"/>
      <point x="993" y="891"/>
      <point x="1001" y="855"/>
      <point x="1017" y="817" type="curve"/>
      <point x="1486" y="817" type="line"/>
      <point x="1495" y="711" type="line"/>
      <point x="1352" y="258" type="line"/>
      <point x="1340" y="224"/>
      <point x="1337" y="197"/>
      <point x="1337" y="172" type="curve" smooth="yes"/>
      <point x="1337" y="132"/>
      <point x="1350" y="92"/>
      <point x="1389" y="92" type="curve" smooth="yes"/>
      <point x="1430" y="92"/>
      <point x="1476" y="132"/>
      <point x="1528" y="210" type="curve" smooth="yes"/>
      <point x="1585" y="296" type="line"/>
      <point x="1650" y="251" type="line"/>
      <point x="1589" y="162" type="line" smooth="yes"/>
      <point x="1528" y="73"/>
      <point x="1441" y="-19"/>
      <point x="1323" y="-19" type="curve" smooth="yes"/>
      <point x="1228" y="-19"/>
      <point x="1175" y="65"/>
      <point x="1175" y="164" type="curve" smooth="yes"/>
      <point x="1175" y="231"/>
      <point x="1200" y="301"/>
      <point x="1220" y="370" type="curve" smooth="yes"/>
      <point x="1325" y="727" type="line"/>
      <point x="997" y="727" type="line"/>
      <point x="904" y="337" type="line" smooth="yes"/>
      <point x="835" y="46"/>
      <point x="800" y="-229"/>
      <point x="578" y="-316" type="curve"/>
    </contour>
    <contour>
      <point x="671" y="1158" type="curve"/>
      <point x="671" y="1159" type="line"/>
      <point x="600" y="1159"/>
      <point x="476" y="1080"/>
      <point x="476" y="937" type="curve" smooth="yes"/>
      <point x="476" y="901"/>
      <point x="484" y="861"/>
      <point x="503" y="817" type="curve"/>
      <point x="843" y="817" type="line"/>
      <point x="864" y="898"/>
      <point x="890" y="967"/>
      <point x="920" y="1025" type="curve"/>
      <point x="844" y="1057"/>
      <point x="765" y="1158"/>
    </contour>
  </outline>
</glyph>
<glyph name="ffl" format="1">
  <advance width="1867"/>
  <unicode hex="FB04"/>
  <outline>
    <contour>
      <point x="775" y="1170" type="curve"/>
      <point x="686" y="1170"/>
      <point x="650" y="980"/>
      <point x="631" y="913" type="curve" smooth="yes"/>
      <point x="604" y="817" type="line"/>
      <point x="978" y="817" type="line"/>
      <point x="1006" y="908" type="line" smooth="yes"/>
      <point x="1015" y="939"/>
      <point x="1025" y="968"/>
      <point x="1034" y="995" type="curve" smooth="yes"/>
      <point x="1041" y="1015" type="line"/>
      <point x="1020" y="1017" type="line" smooth="yes"/>
      <point x="968" y="1022"/>
      <point x="946" y="1170"/>
    </contour>
    <contour>
      <point x="1394" y="1134" type="curve" smooth="yes"/>
      <point x="1284" y="1134"/>
      <point x="1212" y="1065"/>
      <point x="1169" y="913" type="curve" smooth="yes"/>
      <point x="1142" y="817" type="line"/>
      <point x="1531" y="817" type="line"/>
      <point x="1617" y="1125" type="line"/>
      <point x="1541" y="1129"/>
      <point x="1470" y="1134"/>
    </contour>
    <contour>
      <point x="631" y="-231" type="curve" smooth="yes"/>
      <point x="632" y="-231" type="line" smooth="yes"/>
      <point x="761" y="-231"/>
      <point x="774" y="-75"/>
      <point x="856" y="273" type="curve" smooth="yes"/>
      <point x="963" y="727" type="line"/>
      <point x="590" y="727" type="line"/>
      <point x="494" y="324" type="line" smooth="yes"/>
      <point x="459" y="176"/>
      <point x="432" y="33"/>
      <point x="384" y="-78" type="curve" smooth="yes"/>
      <point x="367" y="-118" type="line"/>
      <point x="344" y="-154" type="line" smooth="yes"/>
      <point x="285" y="-245"/>
      <point x="198" y="-302"/>
      <point x="44" y="-302" type="curve" smooth="yes"/>
      <point x="-28" y="-302"/>
      <point x="-171" y="-262"/>
      <point x="-171" y="-149" type="curve" smooth="yes"/>
      <point x="-171" y="-111"/>
      <point x="-134" y="-90"/>
      <point x="-86" y="-90" type="curve" smooth="yes"/>
      <point x="-12" y="-90"/>
      <point x="14" y="-231"/>
      <point x="92" y="-231" type="curve" smooth="yes"/>
      <point x="221" y="-231"/>
      <point x="230" y="-71"/>
      <point x="316" y="284" type="curve" smooth="yes"/>
      <point x="423" y="727" type="line"/>
      <point x="215" y="727" type="line"/>
      <point x="236" y="817" type="line"/>
      <point x="444" y="817" type="line"/>
      <point x="465" y="901" type="line" smooth="yes"/>
      <point x="518" y="1105"/>
      <point x="619" y="1239"/>
      <point x="842" y="1239" type="curve" smooth="yes"/>
      <point x="920" y="1239"/>
      <point x="1042" y="1218"/>
      <point x="1085" y="1151" type="curve" smooth="yes"/>
      <point x="1096" y="1131" type="line"/>
      <point x="1112" y="1148" type="line" smooth="yes"/>
      <point x="1176" y="1206"/>
      <point x="1273" y="1239"/>
      <point x="1474" y="1239" type="curve"/>
      <point x="1474" y="1239"/>
      <point x="1792" y="1263"/>
      <point x="1792" y="1160" type="curve" smooth="yes"/>
      <point x="1792" y="1142"/>
      <point x="1759" y="1022"/>
      <point x="1554" y="259" type="curve" smooth="yes"/>
      <point x="1545" y="226"/>
      <point x="1539" y="199"/>
      <point x="1539" y="173" type="curve" smooth="yes"/>
      <point x="1539" y="133"/>
      <point x="1552" y="93"/>
      <point x="1592" y="93" type="curve" smooth="yes"/>
      <point x="1633" y="93"/>
      <point x="1679" y="133"/>
      <point x="1731" y="211" type="curve" smooth="yes"/>
      <point x="1788" y="297" type="line"/>
      <point x="1853" y="252" type="line"/>
      <point x="1792" y="163" type="line" smooth="yes"/>
      <point x="1731" y="74"/>
      <point x="1644" y="-18"/>
      <point x="1525" y="-18" type="curve" smooth="yes"/>
      <point x="1429" y="-18"/>
      <point x="1376" y="64"/>
      <point x="1376" y="162" type="curve" smooth="yes"/>
      <point x="1376" y="230"/>
      <point x="1403" y="299"/>
      <point x="1421" y="372" type="curve" smooth="yes"/>
      <point x="1510" y="727" type="line"/>
      <point x="1128" y="727" type="line"/>
      <point x="1032" y="324" type="line" smooth="yes"/>
      <point x="953" y="-9"/>
      <point x="929" y="-302"/>
      <point x="583" y="-302" type="curve" smooth="yes"/>
      <point x="515" y="-302"/>
      <point x="385" y="-265"/>
      <point x="374" y="-163" type="curve" smooth="yes"/>
      <point x="369" y="-117" type="line"/>
      <point x="405" y="-101" type="line" smooth="yes"/>
      <point x="420" y="-94"/>
      <point x="437" y="-90"/>
      <point x="455" y="-90" type="curve" smooth="yes"/>
      <point x="528" y="-90"/>
      <point x="554" y="-231"/>
    </contour>
  </outline>
</glyph>
<glyph name="ck" format="1">
  <advance width="1977"/>
  <outline>
    <contour>
      <point x="1196" y="1315" type="curve" smooth="yes"/>
      <point x="1034" y="1315"/>
      <point x="841" y="1249"/>
      <point x="841" y="959" type="curve" smooth="yes"/>
      <point x="841" y="924"/>
      <point x="845" y="890"/>
      <point x="850" y="857" type="curve"/>
      <point x="798" y="883"/>
      <point x="738" y="892"/>
      <point x="676" y="892" type="curve" smooth="yes"/>
      <point x="418" y="892"/>
      <point x="164" y="722"/>
      <point x="95" y="437" type="curve" smooth="yes"/>
      <point x="84" y="391"/>
      <point x="78" y="347"/>
      <point x="78" y="307" type="curve" smooth="yes"/>
      <point x="78" y="111"/>
      <point x="208" y="-17"/>
      <point x="431" y="-17" type="curve" smooth="yes"/>
      <point x="543" y="-17"/>
      <point x="671" y="11"/>
      <point x="774" y="89" type="curve"/>
      <point x="780" y="100"/>
      <point x="787" y="107"/>
      <point x="787" y="120" type="curve" smooth="yes"/>
      <point x="787" y="125"/>
      <point x="785" y="129"/>
      <point x="778" y="129" type="curve" smooth="yes"/>
      <point x="726" y="129"/>
      <point x="601" y="94"/>
      <point x="504" y="94" type="curve" smooth="yes"/>
      <point x="343" y="94"/>
      <point x="287" y="189"/>
      <point x="287" y="315" type="curve" smooth="yes"/>
      <point x="287" y="521"/>
      <point x="423" y="837"/>
      <point x="672" y="837" type="curve" smooth="yes"/>
      <point x="711" y="837"/>
      <point x="776" y="825"/>
      <point x="776" y="780" type="curve" smooth="yes"/>
      <point x="776" y="738"/>
      <point x="732" y="705"/>
      <point x="732" y="659" type="curve" smooth="yes"/>
      <point x="732" y="621"/>
      <point x="758" y="598"/>
      <point x="801" y="598" type="curve" smooth="yes"/>
      <point x="879" y="598"/>
      <point x="938" y="662"/>
      <point x="938" y="746" type="curve" smooth="yes"/>
      <point x="938" y="799"/>
      <point x="922" y="860"/>
      <point x="922" y="926" type="curve" smooth="yes"/>
      <point x="922" y="1127"/>
      <point x="1044" y="1209"/>
      <point x="1237" y="1213" type="curve"/>
      <point x="977" y="232" type="line"/>
      <point x="967" y="190"/>
      <point x="946" y="130"/>
      <point x="946" y="82" type="curve" smooth="yes"/>
      <point x="946" y="32"/>
      <point x="962" y="0"/>
      <point x="1027" y="0" type="curve" smooth="yes"/>
      <point x="1101" y="0"/>
      <point x="1122" y="68"/>
      <point x="1147" y="175" type="curve" smooth="yes"/>
      <point x="1202" y="409" type="line"/>
      <point x="1254" y="387"/>
      <point x="1313" y="377"/>
      <point x="1375" y="377" type="curve" smooth="yes"/>
      <point x="1395" y="377"/>
      <point x="1415" y="377"/>
      <point x="1435" y="378" type="curve"/>
      <point x="1485" y="188" type="line" smooth="yes"/>
      <point x="1533" y="6"/>
      <point x="1567" y="-19"/>
      <point x="1644" y="-19" type="curve" smooth="yes"/>
      <point x="1767" y="-19"/>
      <point x="1863" y="118"/>
      <point x="1970" y="266" type="curve"/>
      <point x="1907" y="318" type="line"/>
      <point x="1792" y="171"/>
      <point x="1737" y="102"/>
      <point x="1688" y="102" type="curve" smooth="yes"/>
      <point x="1646" y="102"/>
      <point x="1610" y="165"/>
      <point x="1566" y="403" type="curve"/>
      <point x="1587" y="408"/>
      <point x="1869" y="462"/>
      <point x="1869" y="689" type="curve" smooth="yes"/>
      <point x="1869" y="845"/>
      <point x="1746" y="891"/>
      <point x="1640" y="891" type="curve" smooth="yes"/>
      <point x="1513" y="891"/>
      <point x="1388" y="851"/>
      <point x="1290" y="801" type="curve"/>
      <point x="1390" y="1217" type="line" smooth="yes"/>
      <point x="1392" y="1225"/>
      <point x="1393" y="1233"/>
      <point x="1393" y="1240" type="curve" smooth="yes"/>
      <point x="1393" y="1306"/>
      <point x="1305" y="1315"/>
    </contour>
    <contour>
      <point x="1716" y="687" type="curve" smooth="yes"/>
      <point x="1716" y="523"/>
      <point x="1483" y="465"/>
      <point x="1310" y="465" type="curve" smooth="yes"/>
      <point x="1277" y="465"/>
      <point x="1243" y="466"/>
      <point x="1214" y="469" type="curve"/>
      <point x="1278" y="713" type="line"/>
      <point x="1278" y="713"/>
      <point x="1475" y="800"/>
      <point x="1556" y="800" type="curve" smooth="yes"/>
      <point x="1632" y="800"/>
      <point x="1716" y="771"/>
    </contour>
  </outline>
</glyph>
<glyph name="commaaccent" format="1">
  <advance width="659"/>
  <outline>
    <contour>
      <point x="304" y="0" type="move" name="_bot"/>
    </contour>
    <contour>
      <point x="172" y="-272" type="curve" smooth="yes"/>
      <point x="172" y="-184"/>
      <point x="254" y="-108"/>
      <point x="343" y="-108" type="curve" smooth="yes"/>
      <point x="405" y="-108"/>
      <point x="456" y="-132"/>
      <point x="456" y="-231" type="curve" smooth="yes"/>
      <point x="456" y="-457"/>
      <point x="257" y="-561"/>
      <point x="170" y="-561" type="curve" smooth="yes"/>
      <point x="154" y="-561"/>
      <point x="153" y="-560"/>
      <point x="153" y="-555" type="curve" smooth="yes"/>
      <point x="153" y="-502"/>
      <point x="279" y="-552"/>
      <point x="311" y="-390" type="curve" smooth="yes"/>
      <point x="315" y="-370" type="line"/>
      <point x="294" y="-370" type="line" smooth="yes"/>
      <point x="207" y="-370"/>
      <point x="172" y="-328"/>
    </contour>
  </outline>
</glyph>
